<svg width="326" height="76" viewBox="0 0 326 76" fill="none" xmlns="http://www.w3.org/2000/svg">
<g filter="url(#filter0_d_20_37)">
<path d="M48.1464 33.75V34.8C46.6131 34.8 45.6464 35 45.2464 35.4L52.8964 56.35L60.2464 35.7C59.9131 35.1 58.8797 34.8 57.1464 34.8V33.75H65.3464V34.8C63.5131 34.8 62.4631 35.15 62.1964 35.85L52.4964 63H48.3464L42.0964 45.55L35.8964 63H31.7464L22.0464 35.85C21.8131 35.15 20.7464 34.8 18.8464 34.8V33.75H31.5464V34.8C30.0131 34.8 29.0464 35 28.6464 35.4L36.2964 56.3L41.0964 42.75L38.6464 35.85C38.4131 35.15 37.3464 34.8 35.4464 34.8V33.75H48.1464ZM68.6769 44.7C69.4435 44.7 69.8269 45.3833 69.8269 46.75C69.8269 47.3167 69.5435 47.75 68.9769 48.05C68.4102 48.35 67.8102 48.5 67.1769 48.5C66.5102 48.5 65.9102 48.2667 65.3769 47.8C64.8769 47.3333 64.6269 46.7333 64.6269 46C64.6269 44.3 65.4602 42.9667 67.1269 42C68.8269 41 71.0269 40.5 73.7269 40.5C76.8935 40.5 79.3602 41.3 81.1269 42.9C82.8935 44.4667 83.7769 46.4667 83.7769 48.9V58.8C83.7769 59.8667 83.9435 60.65 84.2769 61.15C84.6435 61.65 85.0769 61.9 85.5769 61.9C86.0102 61.9 86.3935 61.7833 86.7269 61.55C87.0935 61.3167 87.2769 61.0333 87.2769 60.7H88.1769C88.1769 62.5 86.3435 63.4 82.6769 63.4C80.9769 63.4 79.6602 62.8 78.7269 61.6C76.7269 62.8667 74.4102 63.5 71.7769 63.5C66.2102 63.5 63.4269 61.4667 63.4269 57.4C63.4269 56.5667 63.7102 55.8167 64.2769 55.15C64.8769 54.4833 65.7769 53.9167 66.9769 53.45C68.1769 52.9833 69.2435 52.6167 70.1769 52.35C71.1435 52.0833 72.4602 51.7833 74.1269 51.45C75.7935 51.0833 76.9269 50.8167 77.5269 50.65C77.5269 47.5167 77.2602 45.35 76.7269 44.15C76.2269 42.9167 75.0602 42.3 73.2269 42.3C72.1269 42.3 71.1269 42.5333 70.2269 43C69.3602 43.4333 68.8435 44 68.6769 44.7ZM78.0269 60.4C77.6935 59.5 77.5269 58.5 77.5269 57.4V51.75C74.6935 52.6167 72.8269 53.3333 71.9269 53.9C70.5269 54.8333 69.8269 56.0333 69.8269 57.5C69.8269 59.0333 70.1435 60.1333 70.7769 60.8C71.4435 61.4667 72.1935 61.8 73.0269 61.8C74.4935 61.8 76.1602 61.3333 78.0269 60.4ZM88.5233 63V61.95C90.3233 61.95 91.3733 61.6167 91.6733 60.95V44C89.8733 43.8667 88.8233 43.8 88.5233 43.8V42.65C89.1567 42.65 90.69 42.3 93.1233 41.6C95.5567 40.8667 97.1567 40.5 97.9233 40.5V42.6C99.6567 41.2 101.307 40.5 102.873 40.5C107.007 40.5 109.073 41.5 109.073 43.5C109.073 44.3 108.823 44.9333 108.323 45.4C107.857 45.8667 107.273 46.1 106.573 46.1C105.807 46.1 105.223 45.9 104.823 45.5C104.423 45.1 104.173 44.65 104.073 44.15C103.973 43.65 103.773 43.2 103.473 42.8C103.207 42.4 102.807 42.2 102.273 42.2C101.007 42.2 99.5567 42.9 97.9233 44.3V60.95C98.2233 61.6167 99.2733 61.95 101.073 61.95V63H88.5233ZM127.655 41.5V35C125.855 34.8667 124.805 34.8 124.505 34.8V33.65C125.139 33.65 126.672 33.3 129.105 32.6C131.539 31.8667 133.139 31.5 133.905 31.5V60C135.705 60.1333 136.755 60.2 137.055 60.2V61.35C136.422 61.35 134.889 61.7167 132.455 62.45C130.022 63.15 128.422 63.5 127.655 63.5V61.85C126.055 62.95 124.055 63.5 121.655 63.5C120.789 63.5 119.889 63.3833 118.955 63.15C118.055 62.95 117.072 62.5833 116.005 62.05C114.972 61.4833 114.055 60.7833 113.255 59.95C112.455 59.0833 111.789 57.9667 111.255 56.6C110.722 55.2 110.455 53.6333 110.455 51.9C110.455 48.2333 111.639 45.3833 114.005 43.35C116.372 41.3167 119.289 40.3 122.755 40.3C124.655 40.3 126.289 40.7 127.655 41.5ZM127.655 43.1C126.389 42.3667 124.855 42 123.055 42C121.589 42 120.205 42.9 118.905 44.7C117.605 46.5 116.955 48.9 116.955 51.9C116.955 54.6667 117.505 57.0167 118.605 58.95C119.705 60.85 120.889 61.8 122.155 61.8C124.455 61.8 126.289 61.2667 127.655 60.2V43.1ZM138.963 63V61.95C140.763 61.95 141.813 61.6167 142.113 60.95V44C140.313 43.8667 139.263 43.8 138.963 43.8V42.65C139.596 42.65 141.129 42.3 143.563 41.6C145.996 40.8667 147.596 40.5 148.363 40.5V42.6C150.096 41.2 151.746 40.5 153.313 40.5C157.446 40.5 159.513 41.5 159.513 43.5C159.513 44.3 159.263 44.9333 158.763 45.4C158.296 45.8667 157.713 46.1 157.013 46.1C156.246 46.1 155.663 45.9 155.263 45.5C154.863 45.1 154.613 44.65 154.513 44.15C154.413 43.65 154.213 43.2 153.913 42.8C153.646 42.4 153.246 42.2 152.713 42.2C151.446 42.2 149.996 42.9 148.363 44.3V60.95C148.663 61.6167 149.713 61.95 151.513 61.95V63H138.963ZM167.445 50.6C167.445 54.5333 167.961 57.4167 168.995 59.25C170.061 61.0833 171.678 62 173.845 62C175.345 62 176.495 61.2167 177.295 59.65C178.095 58.05 178.495 55.95 178.495 53.35C178.495 49.2833 178.011 46.3833 177.045 44.65C176.111 42.9167 174.428 42.05 171.995 42.05C170.561 42.05 169.445 42.8833 168.645 44.55C167.845 46.2167 167.445 48.2333 167.445 50.6ZM173.195 63.5C169.428 63.5 166.428 62.4 164.195 60.2C161.995 58 160.895 55.1333 160.895 51.6C160.895 48.4333 161.895 45.8 163.895 43.7C165.928 41.5667 168.911 40.5 172.845 40.5C176.811 40.5 179.828 41.55 181.895 43.65C183.995 45.75 185.045 48.6 185.045 52.2C185.045 55.4 184.045 58.0833 182.045 60.25C180.045 62.4167 177.095 63.5 173.195 63.5ZM189.441 35C187.641 34.8667 186.591 34.8 186.291 34.8V33.65C186.924 33.65 188.458 33.3 190.891 32.6C193.324 31.8667 194.924 31.5 195.691 31.5V41.7C197.224 40.7667 199.091 40.3 201.291 40.3C202.158 40.3 203.058 40.4167 203.991 40.65C204.924 40.85 205.924 41.2333 206.991 41.8C208.058 42.3333 209.008 43.0333 209.841 43.9C210.674 44.7333 211.358 45.85 211.891 47.25C212.458 48.6167 212.741 50.1667 212.741 51.9C212.741 55.5667 211.508 58.4167 209.041 60.45C206.608 62.4833 203.658 63.5 200.191 63.5C197.958 63.5 196.108 62.9667 194.641 61.9C191.974 62.9667 190.241 63.5 189.441 63.5V35ZM195.691 43.3V60.9C196.824 61.5 198.224 61.8 199.891 61.8C201.691 61.8 203.191 60.95 204.391 59.25C205.624 57.5167 206.241 55.0667 206.241 51.9C206.241 48.9 205.758 46.5 204.791 44.7C203.858 42.9 202.524 42 200.791 42C198.758 42 197.058 42.4333 195.691 43.3ZM222.278 50.95C222.344 53.85 222.994 56.35 224.228 58.45C225.494 60.55 227.094 61.6 229.028 61.6C231.928 61.6 234.261 60.5 236.028 58.3L237.228 58.9C236.261 60.5 234.994 61.6667 233.428 62.4C231.894 63.1333 229.861 63.5 227.328 63.5C226.028 63.5 224.761 63.3167 223.528 62.95C222.294 62.55 221.061 61.9167 219.828 61.05C218.628 60.15 217.644 58.8333 216.878 57.1C216.144 55.3667 215.778 53.3 215.778 50.9C215.778 48 216.794 45.55 218.828 43.55C220.894 41.5167 223.561 40.5 226.828 40.5C230.394 40.5 233.161 41.5167 235.128 43.55C237.094 45.55 238.078 48.0167 238.078 50.95H222.278ZM222.328 49.4H231.428C231.228 47.0333 230.811 45.2167 230.178 43.95C229.578 42.65 228.594 42 227.228 42C226.028 42 224.944 42.6167 223.978 43.85C223.044 45.05 222.494 46.9 222.328 49.4Z" fill="white"/>
<path d="M5 45L15.0512 29.2438C18.7245 23.4855 25.0824 20 31.9125 20H53.7301" stroke="white" stroke-width="2"/>
</g>
<defs>
<filter id="filter0_d_20_37" x="0.156934" y="19" width="241.921" height="52.5" filterUnits="userSpaceOnUse" color-interpolation-filters="sRGB">
<feFlood flood-opacity="0" result="BackgroundImageFix"/>
<feColorMatrix in="SourceAlpha" type="matrix" values="0 0 0 0 0 0 0 0 0 0 0 0 0 0 0 0 0 0 127 0" result="hardAlpha"/>
<feOffset dy="4"/>
<feGaussianBlur stdDeviation="2"/>
<feComposite in2="hardAlpha" operator="out"/>
<feColorMatrix type="matrix" values="0 0 0 0 0 0 0 0 0 0 0 0 0 0 0 0 0 0 0.25 0"/>
<feBlend mode="normal" in2="BackgroundImageFix" result="effect1_dropShadow_20_37"/>
<feBlend mode="normal" in="SourceGraphic" in2="effect1_dropShadow_20_37" result="shape"/>
</filter>
</defs>
</svg>
